<?xml version="1.0" ?><svg height="256" viewBox="0 0 256 256" width="256" xmlns="http://www.w3.org/2000/svg"><title/><g id="fitband-sport-watch"><g><path d="M183.15,78.3c-.03-.05-.05-.1-.08-.14-.15-.24-15.19-24.02-17.1-34.52-1.98-10.86-5.96-33.75-6-33.98A2,2,0,0,0,158,8H98a2,2,0,0,0-1.97,1.66c-.04.23-4.02,23.12-6,33.98-1.91,10.49-16.95,34.28-17.1,34.52-.03.04-.05.09-.08.14A17.885,17.885,0,0,0,70,88v80a17.885,17.885,0,0,0,2.85,9.7c.03.05.05.1.08.14.15.24,15.19,24.02,17.1,34.52,1.98,10.86,5.96,33.75,6,33.98A2,2,0,0,0,98,248h60a2,2,0,0,0,1.97-1.66c.04-.23,4.02-23.12,6-33.98,1.91-10.49,16.95-34.28,17.1-34.52.03-.04.05-.09.08-.14A17.885,17.885,0,0,0,186,168V88A17.885,17.885,0,0,0,183.15,78.3ZM88,182a14.019,14.019,0,0,1-14-14V88A14.019,14.019,0,0,1,88,74h80a14.019,14.019,0,0,1,14,14v80a14.019,14.019,0,0,1-14,14Z"/><path d="M158,106h-2.36a14.774,14.774,0,0,0-3.13-19.49,15.425,15.425,0,0,0-20.62,1.22L128,91.55l-3.89-3.82a15.426,15.426,0,0,0-20.62-1.22A14.774,14.774,0,0,0,100.36,106H98a2,2,0,0,0,0,4h5.89l19.9,19.58a6.037,6.037,0,0,0,8.42,0L152.11,110H158a2,2,0,0,0,0-4Zm-52.75-.27a10.84,10.84,0,0,1,7.73-18.55,11.913,11.913,0,0,1,8.33,3.4l3.89,3.82a3.99,3.99,0,0,0,5.6,0l.68-.67,3.21-3.15a11.573,11.573,0,0,1,15.28-.97,10.779,10.779,0,0,1,.78,16.12l-.27.27H142a1.966,1.966,0,0,0-1.41.59l-1.51,1.5-3.14-12.58a2,2,0,0,0-1.8-1.51,2.048,2.048,0,0,0-1.68.73,2.025,2.025,0,0,0-.32.53L128.65,104H126a1.992,1.992,0,0,0-1.94,1.51l-.56,2.24-3.66-8.54a2,2,0,0,0-3.71.09l-2.52,6.7h-8.09Zm24.15,20.99a1.986,1.986,0,0,1-2.8,0L109.59,110H115a2,2,0,0,0,1.87-1.3l1.25-3.33,4.04,9.42A2,2,0,0,0,124,116a.859.859,0,0,0,.16-.01,1.994,1.994,0,0,0,1.78-1.5l1.62-6.49H130a2.01,2.01,0,0,0,1.86-1.26l1.7-4.25,2.5,10a1.994,1.994,0,0,0,3.35.92l3.42-3.41h3.58Z"/><path d="M156,154H100a2.006,2.006,0,0,0-2,2v6a2.006,2.006,0,0,0,2,2h56a2.006,2.006,0,0,0,2-2v-6A2.006,2.006,0,0,0,156,154Zm-2,6h-4v-2h4Z"/><path d="M156,140H100a2.006,2.006,0,0,0-2,2v6a2.006,2.006,0,0,0,2,2h56a2.006,2.006,0,0,0,2-2v-6A2.006,2.006,0,0,0,156,140Zm-2,6H142v-2h12Z"/><circle cx="142" cy="174" r="2"/><circle cx="128" cy="174" r="2"/><circle cx="114" cy="174" r="2"/></g></g></svg>